
        <svg xmlns="http://www.w3.org/2000/svg" xmlns:xlink="http://www.w3.org/1999/xlink" version="1.1" width="3196.72131147541" 
        height="1524.590163934426" viewBox="0 0 3196.72131147541 1524.590163934426">
			
			<g transform="scale(9.836065573770492) translate(10, 10)">
				<defs id="SvgjsDefs1426"></defs><g id="SvgjsG1427" featureKey="5TMTKC-0" transform="matrix(2.109375,0,0,2.109375,170,0)" fill="#bf1922"><g xmlns="http://www.w3.org/2000/svg"><rect x="8" y="62" width="2" height="2"></rect><rect x="4" y="62" width="2" height="2"></rect><rect y="62" width="2" height="2"></rect><rect x="8" y="0" width="2" height="2"></rect><rect x="4" y="0" width="2" height="2"></rect><rect x="20" y="4" width="2" height="2"></rect><rect x="28" y="8" width="2" height="2"></rect><rect x="28" y="54" width="2" height="2"></rect><rect x="16" y="4" width="2" height="2"></rect><rect x="20" y="58" width="2" height="2"></rect><rect x="16" y="58" width="2" height="2"></rect><rect y="0" width="2" height="2"></rect><path d="M32,0H12v2h20c16.5,0,30,13.5,30,30S48.5,62,32,62H12v2h20c17.6,0,32-14.4,32-32C64,14.4,49.6,0,32,0z"></path><path d="M24,60h8c15.4,0,28-12.6,28-28C60,16.6,47.4,4,32,4h-8v2h8c14.3,0,26,11.7,26,26c0,14.3-11.7,26-26,26h-8V60z"></path><path d="M32,54v2c13.2,0,24-10.8,24-24C56,18.8,45.2,8,32,8v2c12.1,0,22,9.9,22,22C54,44.1,44.1,54,32,54z"></path><path d="M18,33c0,0.3,0,0.7,0,1H8v2h10.3c0.8,3.8,3.2,7,6.5,9H12v2h21v0c5.3-0.4,9.9-3.7,11.9-8.6l-1.8-0.8   C41.2,42.1,36.9,45,32,45c-5.6,0-10.3-3.8-11.6-9H46v-3c0-7.7-6.3-14-14-14c-6.7,0-12.3,4.7-13.7,11H0v2h18.1   C18,32.3,18,32.7,18,33z M32,21c6.6,0,12,5.4,12,12v1H20c0-0.3,0-0.7,0-1c0-0.3,0-0.7,0.1-1H33v-2H20.4C21.7,24.8,26.4,21,32,21z"></path><rect x="39" y="30" width="2" height="2"></rect><rect x="35" y="30" width="2" height="2"></rect><rect x="4" y="34" width="2" height="2"></rect><rect x="4" y="21" width="14" height="2"></rect></g></g><g id="SvgjsG1428" featureKey="nameFeature-0" transform="matrix(3.6909445908695266,0,0,3.6909445908695266,-0.000001759979529795421,21.98819701407974)" fill="#000000"><path d="M3.5 4.880000000000001 l8.26 0 c0.34 0 0.62 0.28 0.62 0.6 c0 0.34 -0.28 0.62 -0.62 0.62 l-8.26 0 c-0.28 0 -0.52 0.22 -0.56 0.5 l8.82 0 c0.34 0 0.62 0.28 0.62 0.62 s-0.28 0.6 -0.62 0.6 l-8.82 0 l0 2.58 c0 0.32 0.26 0.56 0.56 0.56 l3.54 0 c0.34 0 0.62 0.28 0.62 0.62 c0 0.32 -0.28 0.6 -0.62 0.6 l-3.54 0 c-0.98 0 -1.78 -0.8 -1.78 -1.78 l0 -2.58 c-0.28 0.04 -0.5 0.28 -0.5 0.56 l0 11.02 c0 0.32 -0.28 0.6 -0.62 0.6 c-0.32 0 -0.6 -0.28 -0.6 -0.6 l0 -11.02 c0 -0.96 0.78 -1.74 1.72 -1.78 c0.04 -0.94 0.82 -1.72 1.78 -1.72 z M3.5 12.7 l3.54 0 c0.34 0 0.62 0.28 0.62 0.6 c0 0.34 -0.28 0.62 -0.62 0.62 l-3.54 0 c-0.3 0 -0.56 0.24 -0.56 0.56 l0 4.92 c0 0.32 -0.26 0.6 -0.6 0.6 s-0.62 -0.28 -0.62 -0.6 l0 -4.92 c0 -0.98 0.8 -1.78 1.78 -1.78 z M14.58 4.880000000000001 l12.86 0 c0.32 0 0.6 0.28 0.6 0.6 c0 0.34 -0.28 0.62 -0.6 0.62 l-12.86 0 c-0.32 0 -0.6 -0.28 -0.6 -0.62 c0 -0.32 0.28 -0.6 0.6 -0.6 z M14.58 6.6 l4.4 0 c0.98 0 1.78 0.8 1.78 1.78 l0 11.02 c0 0.32 -0.28 0.6 -0.62 0.6 c-0.32 0 -0.6 -0.28 -0.6 -0.6 l0 -11.02 c0 -0.3 -0.26 -0.56 -0.56 -0.56 l-4.4 0 c-0.32 0 -0.6 -0.26 -0.6 -0.6 s0.28 -0.62 0.6 -0.62 z M23.04 6.6 l4.4 0 c0.32 0 0.6 0.28 0.6 0.62 s-0.28 0.6 -0.6 0.6 l-4.4 0 c-0.3 0 -0.56 0.26 -0.56 0.56 l0 11.02 c0 0.32 -0.26 0.6 -0.6 0.6 s-0.62 -0.28 -0.62 -0.6 l0 -11.02 c0 -0.98 0.8 -1.78 1.78 -1.78 z M31.12 4.880000000000001 c0.8 0 1.46 0.66 1.46 1.46 l0 10.16 c0 0.3 0.26 0.56 0.56 0.56 l6.02 0 c0.82 0 1.48 0.66 1.48 1.46 c0 0.82 -0.66 1.48 -1.48 1.48 l-6.02 0 c-0.34 0 -0.6 -0.28 -0.6 -0.62 c0 -0.32 0.26 -0.6 0.6 -0.6 l6.02 0 c0.14 0 0.26 -0.12 0.26 -0.26 s-0.12 -0.24 -0.26 -0.24 l-6.02 0 c-0.98 0 -1.78 -0.8 -1.78 -1.78 l0 -10.14 c0 -0.14 -0.1 -0.26 -0.24 -0.26 c-0.16 0 -0.26 0.12 -0.26 0.26 l0 6.06 c0 0.34 -0.28 0.62 -0.62 0.62 c-0.32 0 -0.6 -0.28 -0.6 -0.62 l0 -6.08 c0 -0.8 0.66 -1.46 1.48 -1.46 z"></path></g>
			</g>
		</svg>
	