
        <svg xmlns="http://www.w3.org/2000/svg" xmlns:xlink="http://www.w3.org/1999/xlink" version="1.1" width="3301.5075376884424" 
        height="1658.2914572864322" viewBox="0 0 3301.5075376884424 1658.2914572864322">
			
			<g transform="scale(15.075376884422111) translate(10, 10)">
				<defs id="SvgjsDefs6736"></defs><g id="SvgjsG6737" featureKey="5TMTKC-0" transform="matrix(1.40625,0,0,1.40625,109,0)" fill="#bf1922"><g xmlns="http://www.w3.org/2000/svg"><rect x="8" y="62" width="2" height="2"></rect><rect x="4" y="62" width="2" height="2"></rect><rect y="62" width="2" height="2"></rect><rect x="8" y="0" width="2" height="2"></rect><rect x="4" y="0" width="2" height="2"></rect><rect x="20" y="4" width="2" height="2"></rect><rect x="28" y="8" width="2" height="2"></rect><rect x="28" y="54" width="2" height="2"></rect><rect x="16" y="4" width="2" height="2"></rect><rect x="20" y="58" width="2" height="2"></rect><rect x="16" y="58" width="2" height="2"></rect><rect y="0" width="2" height="2"></rect><path d="M32,0H12v2h20c16.5,0,30,13.5,30,30S48.5,62,32,62H12v2h20c17.6,0,32-14.4,32-32C64,14.4,49.6,0,32,0z"></path><path d="M24,60h8c15.4,0,28-12.6,28-28C60,16.6,47.4,4,32,4h-8v2h8c14.3,0,26,11.7,26,26c0,14.3-11.7,26-26,26h-8V60z"></path><path d="M32,54v2c13.2,0,24-10.8,24-24C56,18.8,45.2,8,32,8v2c12.1,0,22,9.9,22,22C54,44.1,44.1,54,32,54z"></path><path d="M18,33c0,0.3,0,0.7,0,1H8v2h10.3c0.8,3.8,3.2,7,6.5,9H12v2h21v0c5.3-0.4,9.9-3.7,11.9-8.6l-1.8-0.8   C41.2,42.1,36.9,45,32,45c-5.6,0-10.3-3.8-11.6-9H46v-3c0-7.7-6.3-14-14-14c-6.7,0-12.3,4.7-13.7,11H0v2h18.1   C18,32.3,18,32.7,18,33z M32,21c6.6,0,12,5.4,12,12v1H20c0-0.3,0-0.7,0-1c0-0.3,0-0.7,0.1-1H33v-2H20.4C21.7,24.8,26.4,21,32,21z"></path><rect x="39" y="30" width="2" height="2"></rect><rect x="35" y="30" width="2" height="2"></rect><rect x="4" y="34" width="2" height="2"></rect><rect x="4" y="21" width="14" height="2"></rect></g></g><g id="SvgjsG6738" featureKey="sloganFeature-0" transform="matrix(0.7682926114438116,0,0,0.7682926114438116,23.231707754906655,59.08048792997333)" fill="#bf1922"><path d="M1 15.92 l1.86 0 c0.08 2.18 0.3 2.68 1.1 2.68 c0.96 0 1.02 -0.46 1.1 -2.66 l0 -0.64 c0 -1.82 -0.5 -2.08 -1.1 -2.08 l-2.24 0 l2.6 -7.6 l-3 0 l0 -1.6 l5.44 0 l-2.7 7.6 l0.36 0 c1.9 0 2.5 1.86 2.5 3.68 l0 0.64 c-0.16 3.28 -0.64 4.26 -2.96 4.26 c-2.26 0 -2.82 -1.26 -2.96 -4.28 z M8.92 20 l0 -16 l3 0 c3 0 3 2.2 3 7.58 c0 6.2 0 8.42 -3 8.42 l-3 0 z M10.92 18 l1 0 c1.12 0 1.12 -0.84 1.12 -6.42 c0 -5 0 -5.98 -1.12 -5.98 l-1 0 l0 12.4 z M20.72 15.120000000000001 l2.02 0 c0.04 2.58 0.24 3.08 0.96 3.08 c0.98 0 0.98 -0.82 0.98 -3 c0 -3.2 -3.96 -2.34 -3.96 -6.6 c0 -2.5 0 -4.8 3 -4.8 c2.22 0 2.82 1.26 2.96 4.28 l-2 0 c-0.08 -2.18 -0.32 -2.68 -0.96 -2.68 c-0.98 0 -0.98 1.08 -0.98 3.2 c0 3.1 3.98 2 3.98 6.6 c0 2.8 0 5 -3.02 5 c-2.32 0 -2.86 -1.38 -2.98 -5.08 z M27.519999999999996 5.800000000000001 l0 -1.8 l6 0 l0 1.8 l-2 0 l0 14.2 l-2 0 l0 -14.2 l-2 0 z M34.62 11.58 l0 -7.58 l2 0 l0 7.58 c0 5.78 0 6.62 1 6.62 s1 -0.84 1 -6.62 l0 -7.58 l2 0 l0 7.58 c0 6.4 0 8.62 -3 8.62 s-3 -2.22 -3 -8.62 z M42.519999999999996 20 l0 -16 l3 0 c3 0 3 2.2 3 7.58 c0 6.2 0 8.42 -3 8.42 l-3 0 z M44.519999999999996 18 l1 0 c1.12 0 1.12 -0.84 1.12 -6.42 c0 -5 0 -5.98 -1.12 -5.98 l-1 0 l0 12.4 z M50.31999999999999 20 l0 -16 l2 0 l0 16 l-2 0 z M54.11999999999999 11.58 c0 -5.58 0.12 -7.78 3.12 -7.78 s3.12 2.2 3.12 7.78 c0 6.4 -0.12 8.62 -3.12 8.62 s-3.12 -2.22 -3.12 -8.62 z M56.11999999999999 11.58 c0 5.78 0 6.62 1.12 6.62 s1.12 -0.84 1.12 -6.62 c0 -5.2 0 -6.18 -1.12 -6.18 s-1.12 0.98 -1.12 6.18 z M61.76 15.120000000000001 l2.02 0 c0.04 2.58 0.24 3.08 0.96 3.08 c0.98 0 0.98 -0.82 0.98 -3 c0 -3.2 -3.96 -2.34 -3.96 -6.6 c0 -2.5 0 -4.8 3 -4.8 c2.22 0 2.82 1.26 2.96 4.28 l-2 0 c-0.08 -2.18 -0.32 -2.68 -0.96 -2.68 c-0.98 0 -0.98 1.08 -0.98 3.2 c0 3.1 3.98 2 3.98 6.6 c0 2.8 0 5 -3.02 5 c-2.32 0 -2.86 -1.38 -2.98 -5.08 z M73.76 20 l0 -16 l2 0 l0 16 l-2 0 z M77.76 20 l0 -16 l1.8 0 l2.62 9.8 l-0.02 -0.2 l0 -9.6 l2 0 l0 16 l-1.8 0 l-2.62 -8.8 l0.02 0.2 l0 8.6 l-2 0 z M85.96000000000001 11.58 c0 -5.58 0 -7.78 2.8 -7.78 c2.06 0 2.62 1.26 2.76 4.28 l-1.86 0 c-0.08 -2.18 -0.3 -2.68 -0.9 -2.68 c-0.92 0 -0.92 0.98 -0.92 6.18 c0 5.78 0 6.62 0.92 6.62 c0.66 0 0.86 -0.5 0.9 -3.08 l1.88 0 c-0.12 3.7 -0.62 5.08 -2.78 5.08 c-2.8 0 -2.8 -2.22 -2.8 -8.62 z M92.94000000000001 18.98 c0 -0.76 0.26 -1.02 1.02 -1.02 s1.02 0.26 1.02 1.02 s-0.26 1.02 -1.02 1.02 s-1.02 -0.26 -1.02 -1.02 z"></path></g><g id="SvgjsG6739" featureKey="nameLeftFeature-0" transform="matrix(2.3809520986225277,0,0,2.3809520986225277,-0.0000011353264325249327,4.380953486243721)" fill="#000000"><path d="M3.5 4.880000000000001 l8.26 0 c0.34 0 0.62 0.28 0.62 0.6 c0 0.34 -0.28 0.62 -0.62 0.62 l-8.26 0 c-0.28 0 -0.52 0.22 -0.56 0.5 l8.82 0 c0.34 0 0.62 0.28 0.62 0.62 s-0.28 0.6 -0.62 0.6 l-8.82 0 l0 2.58 c0 0.32 0.26 0.56 0.56 0.56 l3.54 0 c0.34 0 0.62 0.28 0.62 0.62 c0 0.32 -0.28 0.6 -0.62 0.6 l-3.54 0 c-0.98 0 -1.78 -0.8 -1.78 -1.78 l0 -2.58 c-0.28 0.04 -0.5 0.28 -0.5 0.56 l0 11.02 c0 0.32 -0.28 0.6 -0.62 0.6 c-0.32 0 -0.6 -0.28 -0.6 -0.6 l0 -11.02 c0 -0.96 0.78 -1.74 1.72 -1.78 c0.04 -0.94 0.82 -1.72 1.78 -1.72 z M3.5 12.7 l3.54 0 c0.34 0 0.62 0.28 0.62 0.6 c0 0.34 -0.28 0.62 -0.62 0.62 l-3.54 0 c-0.3 0 -0.56 0.24 -0.56 0.56 l0 4.92 c0 0.32 -0.26 0.6 -0.6 0.6 s-0.62 -0.28 -0.62 -0.6 l0 -4.92 c0 -0.98 0.8 -1.78 1.78 -1.78 z"></path></g><g id="SvgjsG6740" featureKey="nameRightFeature-0" transform="matrix(2.380951798271693,0,0,2.380951798271693,33.000000283831575,4.3809594932609865)" fill="#000000"><path d="M0.6 4.880000000000001 l12.86 0 c0.32 0 0.6 0.28 0.6 0.6 c0 0.34 -0.28 0.62 -0.6 0.62 l-12.86 0 c-0.32 0 -0.6 -0.28 -0.6 -0.62 c0 -0.32 0.28 -0.6 0.6 -0.6 z M0.6 6.6 l4.4 0 c0.98 0 1.78 0.8 1.78 1.78 l0 11.02 c0 0.32 -0.28 0.6 -0.62 0.6 c-0.32 0 -0.6 -0.28 -0.6 -0.6 l0 -11.02 c0 -0.3 -0.26 -0.56 -0.56 -0.56 l-4.4 0 c-0.32 0 -0.6 -0.26 -0.6 -0.6 s0.28 -0.62 0.6 -0.62 z M9.06 6.6 l4.4 0 c0.32 0 0.6 0.28 0.6 0.62 s-0.28 0.6 -0.6 0.6 l-4.4 0 c-0.3 0 -0.56 0.26 -0.56 0.56 l0 11.02 c0 0.32 -0.26 0.6 -0.6 0.6 s-0.62 -0.28 -0.62 -0.6 l0 -11.02 c0 -0.98 0.8 -1.78 1.78 -1.78 z M17.14 4.880000000000001 c0.8 0 1.46 0.66 1.46 1.46 l0 10.16 c0 0.3 0.26 0.56 0.56 0.56 l6.02 0 c0.82 0 1.48 0.66 1.48 1.46 c0 0.82 -0.66 1.48 -1.48 1.48 l-6.02 0 c-0.34 0 -0.6 -0.28 -0.6 -0.62 c0 -0.32 0.26 -0.6 0.6 -0.6 l6.02 0 c0.14 0 0.26 -0.12 0.26 -0.26 s-0.12 -0.24 -0.26 -0.24 l-6.02 0 c-0.98 0 -1.78 -0.8 -1.78 -1.78 l0 -10.14 c0 -0.14 -0.1 -0.26 -0.24 -0.26 c-0.16 0 -0.26 0.12 -0.26 0.26 l0 6.06 c0 0.34 -0.28 0.62 -0.62 0.62 c-0.32 0 -0.6 -0.28 -0.6 -0.62 l0 -6.08 c0 -0.8 0.66 -1.46 1.48 -1.46 z"></path></g>
			</g>
		</svg>
	